<mxfile host="app.diagrams.net" modified="2023-10-29T12:34:30.358Z" agent="Mozilla/5.0 (Windows NT 10.0; Win64; x64) AppleWebKit/537.36 (KHTML, like Gecko) Chrome/118.0.0.0 Safari/537.36" etag="2JxlNMIrLJpu2y_fJhzD" version="22.0.8" type="github">
  <diagram name="Page-1" id="Vnkf_c7SI4jOz4paVcYl">
    <mxGraphModel dx="1320" dy="913" grid="1" gridSize="10" guides="1" tooltips="1" connect="1" arrows="1" fold="1" page="1" pageScale="1" pageWidth="850" pageHeight="1100" math="0" shadow="0">
      <root>
        <mxCell id="0" />
        <mxCell id="1" parent="0" />
        <mxCell id="X4adn3DwP0MtKf2xb8kg-3" value="" style="endArrow=classic;html=1;rounded=0;fontSize=16;fontStyle=1" edge="1" parent="1">
          <mxGeometry width="50" height="50" relative="1" as="geometry">
            <mxPoint x="130" y="360" as="sourcePoint" />
            <mxPoint x="230" y="360" as="targetPoint" />
          </mxGeometry>
        </mxCell>
        <mxCell id="X4adn3DwP0MtKf2xb8kg-4" value="" style="endArrow=classic;html=1;rounded=0;fontSize=16;fontStyle=1" edge="1" parent="1">
          <mxGeometry width="50" height="50" relative="1" as="geometry">
            <mxPoint x="120" y="494.5" as="sourcePoint" />
            <mxPoint x="200" y="494.5" as="targetPoint" />
          </mxGeometry>
        </mxCell>
        <mxCell id="X4adn3DwP0MtKf2xb8kg-5" value="学习系统" style="rounded=0;whiteSpace=wrap;html=1;fontSize=16;fontStyle=1" vertex="1" parent="1">
          <mxGeometry x="230" y="330" width="120" height="60" as="geometry" />
        </mxCell>
        <mxCell id="X4adn3DwP0MtKf2xb8kg-7" value="模型" style="shape=cylinder3;whiteSpace=wrap;html=1;boundedLbl=1;backgroundOutline=1;size=15;fontSize=16;fontStyle=1" vertex="1" parent="1">
          <mxGeometry x="490" y="250" width="130" height="150" as="geometry" />
        </mxCell>
        <mxCell id="X4adn3DwP0MtKf2xb8kg-8" value="分类/标注/预测系统" style="rounded=0;whiteSpace=wrap;html=1;fontSize=16;fontStyle=1" vertex="1" parent="1">
          <mxGeometry x="200" y="450" width="170" height="90" as="geometry" />
        </mxCell>
        <mxCell id="X4adn3DwP0MtKf2xb8kg-9" value="" style="endArrow=classic;html=1;rounded=0;exitX=1;exitY=0.5;exitDx=0;exitDy=0;fontSize=16;fontStyle=1" edge="1" parent="1" source="X4adn3DwP0MtKf2xb8kg-5">
          <mxGeometry width="50" height="50" relative="1" as="geometry">
            <mxPoint x="240" y="360" as="sourcePoint" />
            <mxPoint x="480" y="360" as="targetPoint" />
          </mxGeometry>
        </mxCell>
        <mxCell id="X4adn3DwP0MtKf2xb8kg-10" value="" style="endArrow=classic;startArrow=classic;html=1;rounded=0;exitX=0.563;exitY=-0.077;exitDx=0;exitDy=0;exitPerimeter=0;fontSize=16;fontStyle=1" edge="1" parent="1" source="X4adn3DwP0MtKf2xb8kg-8">
          <mxGeometry width="50" height="50" relative="1" as="geometry">
            <mxPoint x="430" y="420" as="sourcePoint" />
            <mxPoint x="480" y="370" as="targetPoint" />
          </mxGeometry>
        </mxCell>
        <mxCell id="X4adn3DwP0MtKf2xb8kg-11" value="" style="endArrow=classic;html=1;rounded=0;fontSize=16;fontStyle=1" edge="1" parent="1">
          <mxGeometry width="50" height="50" relative="1" as="geometry">
            <mxPoint x="370" y="494.5" as="sourcePoint" />
            <mxPoint x="450" y="494.5" as="targetPoint" />
          </mxGeometry>
        </mxCell>
        <mxCell id="X4adn3DwP0MtKf2xb8kg-12" value="Xn+1" style="text;html=1;strokeColor=none;fillColor=none;align=center;verticalAlign=middle;whiteSpace=wrap;rounded=0;fontSize=16;fontStyle=1" vertex="1" parent="1">
          <mxGeometry x="130" y="460" width="60" height="30" as="geometry" />
        </mxCell>
        <mxCell id="X4adn3DwP0MtKf2xb8kg-13" value="Yn+1" style="text;html=1;strokeColor=none;fillColor=none;align=center;verticalAlign=middle;whiteSpace=wrap;rounded=0;fontSize=16;fontStyle=1" vertex="1" parent="1">
          <mxGeometry x="350" y="460" width="105" height="30" as="geometry" />
        </mxCell>
        <mxCell id="X4adn3DwP0MtKf2xb8kg-15" value="（x1,y1),(x2,y2),...(xn,yn)" style="text;html=1;strokeColor=none;fillColor=none;align=center;verticalAlign=middle;whiteSpace=wrap;rounded=0;fontSize=16;fontStyle=1" vertex="1" parent="1">
          <mxGeometry x="80" y="290" width="240" height="30" as="geometry" />
        </mxCell>
        <mxCell id="X4adn3DwP0MtKf2xb8kg-16" value="Y=f(X)" style="text;html=1;strokeColor=none;fillColor=none;align=center;verticalAlign=middle;whiteSpace=wrap;rounded=0;fontSize=16;fontStyle=1" vertex="1" parent="1">
          <mxGeometry x="510" y="410" width="70" height="30" as="geometry" />
        </mxCell>
        <mxCell id="X4adn3DwP0MtKf2xb8kg-19" value="P(Y|X)" style="text;html=1;strokeColor=none;fillColor=none;align=center;verticalAlign=middle;whiteSpace=wrap;rounded=0;fontSize=16;fontStyle=1" vertex="1" parent="1">
          <mxGeometry x="515" y="440" width="60" height="30" as="geometry" />
        </mxCell>
      </root>
    </mxGraphModel>
  </diagram>
</mxfile>
